<?xml version="1.0" standalone="no"?>
<!DOCTYPE svg PUBLIC "-//W3C//DTD SVG 20010904//EN"
 "http://www.w3.org/TR/2001/REC-SVG-20010904/DTD/svg10.dtd">
<svg version="1.0" xmlns="http://www.w3.org/2000/svg"
 width="1316.000000pt" height="1316.000000pt" viewBox="0 0 1316.000000 1316.000000"
 preserveAspectRatio="xMidYMid meet">
<metadata>
Created by potrace 1.14, written by Peter Selinger 2001-2017
</metadata>
<g transform="translate(0.000000,1316.000000) scale(0.100000,-0.100000)"
fill="#000000" stroke="none">
<path d="M0 6576 l0 -4286 498 0 498 0 0 1770 c-1 974 1 1776 4 1783 4 9 207
12 895 12 l890 0 23 -40 c13 -22 34 -58 46 -80 13 -22 78 -135 146 -250 238
-408 304 -521 358 -615 30 -52 75 -129 99 -170 25 -41 49 -84 56 -95 6 -11
150 -258 320 -550 170 -291 319 -548 332 -570 26 -46 112 -193 136 -233 16
-27 72 -124 196 -337 36 -60 69 -117 74 -125 12 -21 124 -213 212 -365 l75
-130 589 -3 c468 -2 590 0 590 10 0 7 20 65 43 128 23 63 55 151 70 195 68
191 111 311 119 330 10 22 77 209 166 460 31 88 61 171 66 185 6 14 44 119 85
235 41 115 81 226 89 245 8 19 50 139 95 265 45 127 85 238 91 247 5 10 9 23
9 29 0 6 6 25 14 42 7 18 37 97 66 177 28 80 62 174 75 210 13 36 47 130 75
210 29 80 58 161 66 180 7 19 43 118 79 220 37 102 89 246 116 320 27 74 51
142 53 151 2 8 18 51 35 95 17 43 31 82 31 86 0 4 4 17 9 30 5 13 10 28 11 33
1 6 5 15 9 20 5 6 11 22 14 36 4 14 14 43 23 65 l16 39 13 -35 c8 -19 37 -100
65 -180 28 -80 60 -167 70 -195 10 -27 55 -153 100 -280 45 -126 90 -252 100
-280 21 -54 94 -260 142 -395 37 -104 151 -422 183 -510 13 -36 44 -121 69
-190 43 -121 478 -1337 576 -1610 152 -425 189 -527 195 -548 l6 -22 496 2
495 3 64 180 c36 99 67 187 71 195 3 8 7 20 9 25 1 6 57 161 124 345 67 184
141 389 165 455 71 199 145 404 187 520 22 61 50 139 63 175 12 36 53 148 90
250 37 102 84 232 105 290 21 58 72 200 113 315 42 116 92 255 112 310 20 55
69 192 110 305 40 113 88 248 108 300 19 52 58 160 86 240 29 80 56 154 61
165 4 11 22 58 38 105 17 47 71 199 121 337 50 139 91 256 91 259 0 3 6 20 14
37 8 18 77 208 154 422 77 215 211 586 297 825 210 580 217 601 271 753 26 73
52 146 59 162 11 26 240 662 395 1095 26 74 74 205 105 290 31 85 60 167 65
183 l9 27 -537 -2 -536 -3 -54 -150 c-89 -251 -107 -301 -192 -540 -45 -126
-92 -259 -105 -295 -13 -36 -72 -200 -130 -365 -59 -165 -167 -471 -242 -680
-74 -209 -173 -488 -220 -620 -46 -132 -87 -247 -90 -255 -3 -8 -7 -19 -9 -25
-1 -5 -19 -55 -39 -110 -37 -101 -69 -193 -130 -365 -19 -52 -54 -151 -78
-220 -25 -69 -64 -179 -87 -245 -23 -66 -45 -129 -50 -140 -5 -11 -14 -36 -20
-55 -14 -41 -53 -151 -110 -310 -23 -63 -50 -140 -60 -170 -10 -30 -23 -66
-28 -80 -6 -14 -39 -104 -73 -200 -34 -96 -84 -238 -111 -315 -27 -77 -65
-183 -83 -235 -19 -52 -52 -147 -75 -210 -69 -195 -249 -747 -265 -818 -3 -9
-23 -79 -45 -156 -22 -76 -44 -155 -49 -175 -5 -20 -21 -81 -36 -136 -15 -55
-28 -107 -30 -115 -42 -183 -94 -393 -99 -397 -3 -4 -7 3 -7 15 -1 12 -2 25
-4 30 -10 36 -20 77 -50 205 -134 562 -321 1167 -600 1937 -13 36 -74 207
-135 380 -61 173 -122 344 -135 380 -31 86 -120 336 -190 535 -31 88 -68 191
-82 229 -14 38 -32 87 -39 110 -7 22 -22 66 -34 96 -12 30 -23 62 -25 70 -2 8
-34 98 -70 200 -37 102 -78 219 -93 261 l-25 76 56 154 c31 85 86 237 122 339
37 102 95 264 130 360 69 190 136 375 195 540 52 146 132 367 173 480 19 52
80 223 136 380 56 157 106 294 111 305 9 21 54 146 56 155 1 7 14 40 26 70 6
14 14 37 18 53 l9 27 -537 0 -537 0 -68 -198 c-62 -178 -83 -235 -107 -297 -5
-11 -37 -103 -73 -205 -36 -102 -105 -296 -153 -433 l-88 -247 -12 37 c-10 32
-236 667 -280 788 -8 22 -23 65 -33 95 -11 30 -42 120 -71 200 -29 80 -61 171
-72 203 l-20 57 -530 0 c-501 0 -530 -1 -523 -17 10 -23 213 -583 264 -728 21
-60 57 -159 79 -220 49 -137 135 -377 214 -600 33 -93 64 -179 69 -190 4 -11
31 -85 59 -165 29 -80 60 -167 70 -195 115 -306 253 -707 254 -735 0 -19 -9
-60 -21 -90 -12 -30 -59 -158 -103 -285 -45 -126 -124 -351 -176 -500 -53
-148 -102 -286 -109 -305 -14 -37 -20 -52 -165 -465 -50 -143 -96 -269 -100
-280 -5 -11 -70 -193 -145 -405 -198 -558 -224 -631 -240 -670 -37 -90 -375
-1061 -390 -1120 -17 -64 -171 -530 -176 -530 -3 0 -49 71 -101 157 -52 87
-166 275 -253 418 -86 143 -165 274 -175 290 -16 28 -375 620 -466 770 -45 73
-100 166 -120 200 -12 21 -309 512 -336 555 -8 14 -65 107 -125 207 l-111 182
122 47 c229 89 505 231 654 338 68 49 196 147 207 160 6 6 37 36 70 66 195
181 353 401 464 646 41 91 116 305 125 357 3 16 9 43 15 60 20 64 47 255 58
402 12 166 6 513 -11 600 -2 11 -7 47 -10 80 -14 122 -58 313 -106 457 -143
427 -392 756 -760 1005 -61 42 -255 153 -266 153 -2 0 -42 18 -91 41 -163 76
-522 183 -728 218 -174 30 -357 54 -510 67 -38 3 -90 8 -115 11 -25 3 -672 8
-1437 10 l-1393 4 0 -4285z m2655 3400 c33 -3 87 -8 120 -11 104 -8 168 -15
225 -25 30 -5 71 -12 90 -15 19 -3 53 -10 75 -15 22 -5 54 -11 71 -14 57 -10
208 -56 304 -93 419 -160 670 -428 791 -844 15 -52 30 -111 33 -130 3 -19 7
-43 10 -54 4 -25 15 -111 22 -190 8 -81 7 -337 0 -405 -4 -30 -9 -77 -12 -105
-11 -102 -58 -305 -90 -385 -1 -3 -5 -16 -9 -28 -22 -67 -144 -293 -175 -322
-3 -3 -22 -26 -43 -52 -156 -195 -379 -340 -667 -435 -129 -43 -310 -86 -415
-99 -33 -5 -62 -9 -65 -9 -3 -1 -34 -5 -70 -9 -36 -4 -85 -10 -110 -13 -25 -3
-426 -7 -892 -10 -699 -4 -848 -2 -849 9 -3 42 -3 3227 -1 3244 l4 21 796 -2
c439 -2 824 -6 857 -9z"/>
</g>
</svg>
